<svg width="21" height="21" viewBox="0 0 21 21" fill="none" xmlns="http://www.w3.org/2000/svg">
<path d="M10.5 0C4.7145 0 0 4.7145 0 10.5C0 16.2855 4.7145 21 10.5 21C16.2855 21 21 16.2855 21 10.5C21 4.7145 16.2855 0 10.5 0ZM14.028 12.915C14.3325 13.2195 14.3325 13.7235 14.028 14.028C13.8705 14.1855 13.671 14.259 13.4715 14.259C13.272 14.259 13.0725 14.1855 12.915 14.028L10.5 11.613L8.085 14.028C7.9275 14.1855 7.728 14.259 7.5285 14.259C7.329 14.259 7.1295 14.1855 6.972 14.028C6.6675 13.7235 6.6675 13.2195 6.972 12.915L9.387 10.5L6.972 8.085C6.6675 7.7805 6.6675 7.2765 6.972 6.972C7.2765 6.6675 7.7805 6.6675 8.085 6.972L10.5 9.387L12.915 6.972C13.2195 6.6675 13.7235 6.6675 14.028 6.972C14.3325 7.2765 14.3325 7.7805 14.028 8.085L11.613 10.5L14.028 12.915Z" fill="#505050"/>
</svg>
