<svg width="435" height="449" viewBox="0 0 435 449" fill="none" xmlns="http://www.w3.org/2000/svg">
<rect width="435" height="449" rx="30" fill="url(#paint0_linear_197_57)"/>
<rect x="46" y="35" width="340" height="365" rx="20" fill="#D9D9D9"/>
<path d="M158.862 209C158.627 209 158.51 208.883 158.51 208.648V190.792H152.814C152.6 190.792 152.493 190.675 152.493 190.44V188.392C152.493 188.157 152.6 188.04 152.814 188.04H167.278C167.491 188.04 167.597 188.157 167.597 188.392V190.44C167.597 190.675 167.491 190.792 167.278 190.792H161.582V208.648C161.582 208.883 161.464 209 161.23 209H158.862ZM173.102 209C172.995 209 172.91 208.968 172.846 208.904C172.803 208.819 172.814 208.712 172.878 208.584L176.27 201.672L169.486 188.456C169.443 188.328 169.443 188.232 169.486 188.168C169.55 188.083 169.635 188.04 169.742 188.04H172.43C172.643 188.04 172.782 188.115 172.846 188.264L176.366 195.496C176.622 196.029 176.878 196.552 177.134 197.064C177.39 197.555 177.625 198.077 177.838 198.632H177.902C178.137 198.077 178.371 197.544 178.606 197.032C178.862 196.52 179.118 196.008 179.374 195.496L182.926 188.264C183.011 188.115 183.15 188.04 183.342 188.04H185.934C186.062 188.04 186.147 188.083 186.19 188.168C186.233 188.232 186.233 188.328 186.19 188.456L175.886 208.776C175.822 208.925 175.694 209 175.502 209H173.102ZM193.987 209C193.752 209 193.635 208.883 193.635 208.648V190.792H187.939C187.725 190.792 187.618 190.675 187.618 190.44V188.392C187.618 188.157 187.725 188.04 187.939 188.04H202.403C202.616 188.04 202.722 188.157 202.722 188.392V190.44C202.722 190.675 202.616 190.792 202.403 190.792H196.707V208.648C196.707 208.883 196.589 209 196.355 209H193.987ZM213.382 209C213.168 209 213.062 208.883 213.062 208.648V188.392C213.062 188.157 213.168 188.04 213.382 188.04H224.71C224.923 188.04 225.03 188.157 225.03 188.392V190.44C225.03 190.675 224.923 190.792 224.71 190.792H216.102V196.072H219.526C222.107 196.072 224.048 196.595 225.35 197.64C226.651 198.685 227.302 200.253 227.302 202.344C227.302 203.773 227.003 204.989 226.406 205.992C225.808 206.973 224.923 207.72 223.75 208.232C222.576 208.744 221.126 209 219.398 209H213.382ZM216.102 206.44H219.302C220.966 206.44 222.203 206.109 223.014 205.448C223.846 204.765 224.262 203.731 224.262 202.344C224.262 201 223.867 200.04 223.078 199.464C222.31 198.888 221.083 198.6 219.398 198.6H216.102V206.44ZM232.602 209C232.495 209 232.41 208.968 232.346 208.904C232.303 208.819 232.314 208.712 232.378 208.584L235.77 201.672L228.986 188.456C228.943 188.328 228.943 188.232 228.986 188.168C229.05 188.083 229.135 188.04 229.242 188.04H231.93C232.143 188.04 232.282 188.115 232.346 188.264L235.866 195.496C236.122 196.029 236.378 196.552 236.634 197.064C236.89 197.555 237.125 198.077 237.338 198.632H237.402C237.637 198.077 237.871 197.544 238.106 197.032C238.362 196.52 238.618 196.008 238.874 195.496L242.426 188.264C242.511 188.115 242.65 188.04 242.842 188.04H245.434C245.562 188.04 245.647 188.083 245.69 188.168C245.733 188.232 245.733 188.328 245.69 188.456L235.386 208.776C235.322 208.925 235.194 209 235.002 209H232.602ZM248.066 208.584L244.962 208.488L251.618 188.296C251.682 188.125 251.82 188.04 252.034 188.04H255.266C255.458 188.04 255.586 188.125 255.65 188.296L262.37 208.488L259.17 208.584L255.298 196.2C255.042 195.283 254.764 194.376 254.466 193.48C254.167 192.584 253.879 191.677 253.602 190.76H253.57C253.271 191.699 252.983 192.627 252.706 193.544C252.428 194.461 252.14 195.389 251.842 196.328L248.066 208.584ZM244.29 213.224C244.183 213.224 244.098 213.181 244.034 213.096C243.97 213.032 243.938 212.957 243.938 212.872V206.568C243.938 206.461 243.97 206.387 244.034 206.344C244.098 206.28 244.183 206.248 244.29 206.248H263.106C263.212 206.248 263.287 206.28 263.33 206.344C263.394 206.387 263.426 206.461 263.426 206.568V212.872C263.426 212.957 263.394 213.032 263.33 213.096C263.287 213.181 263.212 213.224 263.106 213.224H260.738C260.631 213.224 260.546 213.181 260.482 213.096C260.418 213.032 260.385 212.957 260.385 212.872V209H246.978V212.872C246.978 212.957 246.946 213.032 246.882 213.096C246.839 213.181 246.754 213.224 246.626 213.224H244.29ZM266.382 209C266.168 209 266.062 208.883 266.062 208.648V188.392C266.062 188.157 266.168 188.04 266.382 188.04H278.03C278.243 188.04 278.35 188.157 278.35 188.392V190.44C278.35 190.675 278.243 190.792 278.03 190.792H269.102V197.032H277.262C277.475 197.032 277.582 197.149 277.582 197.384V199.336C277.582 199.571 277.475 199.688 277.262 199.688H269.102V206.248H278.03C278.243 206.248 278.35 206.365 278.35 206.6V208.648C278.35 208.883 278.243 209 278.03 209H266.382ZM179.632 247C179.376 247 179.28 246.872 179.344 246.616L186.288 226.296C186.352 226.125 186.48 226.04 186.672 226.04H189.904C190.117 226.04 190.256 226.125 190.32 226.296L197.328 246.616C197.37 246.744 197.36 246.84 197.296 246.904C197.253 246.968 197.168 247 197.04 247H194.448C194.234 247 194.096 246.915 194.032 246.744L189.52 232.696C189.306 232.056 189.093 231.405 188.88 230.744C188.666 230.083 188.453 229.421 188.24 228.76H188.208C188.016 229.4 187.824 230.051 187.632 230.712C187.44 231.373 187.237 232.024 187.024 232.664L182.512 246.712C182.448 246.904 182.32 247 182.128 247H179.632ZM207.148 247.384C204.438 247.384 202.412 246.723 201.068 245.4C199.745 244.077 199.084 242.2 199.084 239.768V233.272C199.084 230.819 199.745 228.941 201.068 227.64C202.412 226.317 204.438 225.656 207.148 225.656C209.857 225.656 211.884 226.317 213.228 227.64C214.572 228.941 215.244 230.819 215.244 233.272V239.768C215.244 242.2 214.572 244.077 213.228 245.4C211.884 246.723 209.857 247.384 207.148 247.384ZM207.148 244.696C208.812 244.696 210.07 244.269 210.924 243.416C211.777 242.563 212.204 241.315 212.204 239.672V233.368C212.204 231.704 211.777 230.456 210.924 229.624C210.07 228.771 208.812 228.344 207.148 228.344C205.526 228.344 204.278 228.771 203.404 229.624C202.55 230.456 202.124 231.704 202.124 233.368V239.672C202.124 241.315 202.55 242.563 203.404 243.416C204.278 244.269 205.526 244.696 207.148 244.696ZM220.413 247C220.199 247 220.093 246.883 220.093 246.648V226.392C220.093 226.157 220.199 226.04 220.413 226.04H231.453C231.666 226.04 231.773 226.157 231.773 226.392V228.44C231.773 228.675 231.666 228.792 231.453 228.792H223.133V246.648C223.133 246.883 223.026 247 222.813 247H220.413ZM242.335 247.384C239.626 247.384 237.599 246.723 236.255 245.4C234.933 244.077 234.271 242.2 234.271 239.768V233.272C234.271 230.819 234.933 228.941 236.255 227.64C237.599 226.317 239.626 225.656 242.335 225.656C245.045 225.656 247.071 226.317 248.415 227.64C249.759 228.941 250.431 230.819 250.431 233.272V239.768C250.431 242.2 249.759 244.077 248.415 245.4C247.071 246.723 245.045 247.384 242.335 247.384ZM242.335 244.696C243.999 244.696 245.258 244.269 246.111 243.416C246.965 242.563 247.391 241.315 247.391 239.672V233.368C247.391 231.704 246.965 230.456 246.111 229.624C245.258 228.771 243.999 228.344 242.335 228.344C240.714 228.344 239.466 228.771 238.591 229.624C237.738 230.456 237.311 231.704 237.311 233.368V239.672C237.311 241.315 237.738 242.563 238.591 243.416C239.466 244.269 240.714 244.696 242.335 244.696Z" fill="black"/>
<defs>
<linearGradient id="paint0_linear_197_57" x1="0" y1="0" x2="448.775" y2="434.782" gradientUnits="userSpaceOnUse">
<stop stop-color="#3E303A"/>
<stop offset="1" stop-color="#243930"/>
</linearGradient>
</defs>
</svg>
