<svg width="50" height="50" viewBox="0 0 50 50" fill="none" xmlns="http://www.w3.org/2000/svg">
<path d="M28.9062 37.4982H21.0938C19.7949 37.4982 18.75 36.4531 18.75 35.1541V18.7454H10.1855C8.44727 18.7454 7.57812 16.6455 8.80859 15.4149L23.6621 0.549397C24.3945 -0.183132 25.5957 -0.183132 26.3281 0.549397L41.1914 15.4149C42.4219 16.6455 41.5527 18.7454 39.8145 18.7454H31.25V35.1541C31.25 36.4531 30.2051 37.4982 28.9062 37.4982ZM50 36.7168V47.6559C50 48.9549 48.9551 50 47.6562 50H2.34375C1.04492 50 0 48.9549 0 47.6559V36.7168C0 35.4178 1.04492 34.3727 2.34375 34.3727H15.625V35.1541C15.625 38.1721 18.0762 40.6236 21.0938 40.6236H28.9062C31.9238 40.6236 34.375 38.1721 34.375 35.1541V34.3727H47.6562C48.9551 34.3727 50 35.4178 50 36.7168ZM37.8906 45.3118C37.8906 44.2374 37.0117 43.3584 35.9375 43.3584C34.8633 43.3584 33.9844 44.2374 33.9844 45.3118C33.9844 46.3862 34.8633 47.2652 35.9375 47.2652C37.0117 47.2652 37.8906 46.3862 37.8906 45.3118ZM44.1406 45.3118C44.1406 44.2374 43.2617 43.3584 42.1875 43.3584C41.1133 43.3584 40.2344 44.2374 40.2344 45.3118C40.2344 46.3862 41.1133 47.2652 42.1875 47.2652C43.2617 47.2652 44.1406 46.3862 44.1406 45.3118Z" fill="#505050"/>
</svg>
