<svg width="128" height="132" viewBox="0 0 128 132" fill="none" xmlns="http://www.w3.org/2000/svg">
<rect width="128" height="132" rx="30" fill="url(#paint0_linear_54_9)"/>
<rect x="14" y="10" width="100" height="107" rx="20" fill="#D5D5D5" fill-opacity="0.9"/>
<path d="M30.7884 64C30.6418 64 30.5684 63.9267 30.5684 63.78V52.62H27.0084C26.8751 52.62 26.8084 52.5467 26.8084 52.4V51.12C26.8084 50.9733 26.8751 50.9 27.0084 50.9H36.0484C36.1818 50.9 36.2484 50.9733 36.2484 51.12V52.4C36.2484 52.5467 36.1818 52.62 36.0484 52.62H32.4884V63.78C32.4884 63.9267 32.4151 64 32.2684 64H30.7884ZM39.6888 64C39.6221 64 39.5688 63.98 39.5288 63.94C39.5021 63.8867 39.5088 63.82 39.5488 63.74L41.6688 59.42L37.4288 51.16C37.4021 51.08 37.4021 51.02 37.4288 50.98C37.4688 50.9267 37.5221 50.9 37.5888 50.9H39.2688C39.4021 50.9 39.4888 50.9467 39.5288 51.04L41.7288 55.56C41.8888 55.8933 42.0488 56.22 42.2088 56.54C42.3688 56.8467 42.5154 57.1733 42.6488 57.52H42.6888C42.8354 57.1733 42.9821 56.84 43.1288 56.52C43.2888 56.2 43.4488 55.88 43.6088 55.56L45.8288 51.04C45.8821 50.9467 45.9688 50.9 46.0888 50.9H47.7088C47.7888 50.9 47.8421 50.9267 47.8688 50.98C47.8954 51.02 47.8954 51.08 47.8688 51.16L41.4288 63.86C41.3888 63.9533 41.3088 64 41.1888 64H39.6888ZM52.7416 64C52.5949 64 52.5216 63.9267 52.5216 63.78V52.62H48.9616C48.8282 52.62 48.7616 52.5467 48.7616 52.4V51.12C48.7616 50.9733 48.8282 50.9 48.9616 50.9H58.0016C58.1349 50.9 58.2016 50.9733 58.2016 51.12V52.4C58.2016 52.5467 58.1349 52.62 58.0016 52.62H54.4416V63.78C54.4416 63.9267 54.3682 64 54.2216 64H52.7416ZM64.8634 64C64.7301 64 64.6634 63.9267 64.6634 63.78V51.12C64.6634 50.9733 64.7301 50.9 64.8634 50.9H71.9434C72.0768 50.9 72.1434 50.9733 72.1434 51.12V52.4C72.1434 52.5467 72.0768 52.62 71.9434 52.62H66.5634V55.92H68.7034C70.3168 55.92 71.5301 56.2467 72.3434 56.9C73.1568 57.5533 73.5634 58.5333 73.5634 59.84C73.5634 60.7333 73.3768 61.4933 73.0034 62.12C72.6301 62.7333 72.0768 63.2 71.3434 63.52C70.6101 63.84 69.7034 64 68.6234 64H64.8634ZM66.5634 62.4H68.5634C69.6034 62.4 70.3768 62.1933 70.8834 61.78C71.4034 61.3533 71.6634 60.7067 71.6634 59.84C71.6634 59 71.4168 58.4 70.9234 58.04C70.4434 57.68 69.6768 57.5 68.6234 57.5H66.5634V62.4ZM76.8763 64C76.8096 64 76.7563 63.98 76.7163 63.94C76.6896 63.8867 76.6963 63.82 76.7363 63.74L78.8563 59.42L74.6163 51.16C74.5896 51.08 74.5896 51.02 74.6163 50.98C74.6563 50.9267 74.7096 50.9 74.7763 50.9H76.4563C76.5896 50.9 76.6763 50.9467 76.7163 51.04L78.9163 55.56C79.0763 55.8933 79.2363 56.22 79.3963 56.54C79.5563 56.8467 79.7029 57.1733 79.8363 57.52H79.8763C80.0229 57.1733 80.1696 56.84 80.3163 56.52C80.4763 56.2 80.6363 55.88 80.7963 55.56L83.0163 51.04C83.0696 50.9467 83.1563 50.9 83.2763 50.9H84.8963C84.9763 50.9 85.0296 50.9267 85.0563 50.98C85.0829 51.02 85.0829 51.08 85.0563 51.16L78.6163 63.86C78.5763 63.9533 78.4963 64 78.3763 64H76.8763ZM86.5409 63.74L84.6009 63.68L88.7609 51.06C88.8009 50.9533 88.8876 50.9 89.0209 50.9H91.0409C91.1609 50.9 91.2409 50.9533 91.2809 51.06L95.4809 63.68L93.4809 63.74L91.0609 56C90.9009 55.4267 90.7276 54.86 90.5409 54.3C90.3543 53.74 90.1743 53.1733 90.0009 52.6H89.9809C89.7943 53.1867 89.6143 53.7667 89.4409 54.34C89.2676 54.9133 89.0876 55.4933 88.9009 56.08L86.5409 63.74ZM84.1809 66.64C84.1143 66.64 84.0609 66.6133 84.0209 66.56C83.9809 66.52 83.9609 66.4733 83.9609 66.42V62.48C83.9609 62.4133 83.9809 62.3667 84.0209 62.34C84.0609 62.3 84.1143 62.28 84.1809 62.28H95.9409C96.0076 62.28 96.0543 62.3 96.0809 62.34C96.1209 62.3667 96.1409 62.4133 96.1409 62.48V66.42C96.1409 66.4733 96.1209 66.52 96.0809 66.56C96.0543 66.6133 96.0076 66.64 95.9409 66.64H94.4609C94.3943 66.64 94.3409 66.6133 94.3009 66.56C94.2609 66.52 94.2409 66.4733 94.2409 66.42V64H85.8609V66.42C85.8609 66.4733 85.8409 66.52 85.8009 66.56C85.7743 66.6133 85.7209 66.64 85.6409 66.64H84.1809ZM97.9884 64C97.8551 64 97.7884 63.9267 97.7884 63.78V51.12C97.7884 50.9733 97.8551 50.9 97.9884 50.9H105.268C105.402 50.9 105.468 50.9733 105.468 51.12V52.4C105.468 52.5467 105.402 52.62 105.268 52.62H99.6884V56.52H104.788C104.922 56.52 104.988 56.5933 104.988 56.74V57.96C104.988 58.1067 104.922 58.18 104.788 58.18H99.6884V62.28H105.268C105.402 62.28 105.468 62.3533 105.468 62.5V63.78C105.468 63.9267 105.402 64 105.268 64H97.9884ZM43.7698 88C43.6098 88 43.5498 87.92 43.5898 87.76L47.9298 75.06C47.9698 74.9533 48.0498 74.9 48.1698 74.9H50.1898C50.3232 74.9 50.4098 74.9533 50.4498 75.06L54.8298 87.76C54.8565 87.84 54.8498 87.9 54.8098 87.94C54.7832 87.98 54.7298 88 54.6498 88H53.0298C52.8965 88 52.8098 87.9467 52.7698 87.84L49.9498 79.06C49.8165 78.66 49.6832 78.2533 49.5498 77.84C49.4165 77.4267 49.2832 77.0133 49.1498 76.6H49.1298C49.0098 77 48.8898 77.4067 48.7698 77.82C48.6498 78.2333 48.5232 78.64 48.3898 79.04L45.5698 87.82C45.5298 87.94 45.4498 88 45.3298 88H43.7698ZM60.9673 88.24C59.274 88.24 58.0073 87.8267 57.1673 87C56.3407 86.1733 55.9273 85 55.9273 83.48V79.42C55.9273 77.8867 56.3407 76.7133 57.1673 75.9C58.0073 75.0733 59.274 74.66 60.9673 74.66C62.6607 74.66 63.9273 75.0733 64.7673 75.9C65.6073 76.7133 66.0273 77.8867 66.0273 79.42V83.48C66.0273 85 65.6073 86.1733 64.7673 87C63.9273 87.8267 62.6607 88.24 60.9673 88.24ZM60.9673 86.56C62.0073 86.56 62.794 86.2933 63.3273 85.76C63.8607 85.2267 64.1273 84.4467 64.1273 83.42V79.48C64.1273 78.44 63.8607 77.66 63.3273 77.14C62.794 76.6067 62.0073 76.34 60.9673 76.34C59.954 76.34 59.174 76.6067 58.6273 77.14C58.094 77.66 57.8273 78.44 57.8273 79.48V83.42C57.8273 84.4467 58.094 85.2267 58.6273 85.76C59.174 86.2933 59.954 86.56 60.9673 86.56ZM69.258 88C69.1246 88 69.058 87.9267 69.058 87.78V75.12C69.058 74.9733 69.1246 74.9 69.258 74.9H76.158C76.2913 74.9 76.358 74.9733 76.358 75.12V76.4C76.358 76.5467 76.2913 76.62 76.158 76.62H70.958V87.78C70.958 87.9267 70.8913 88 70.758 88H69.258ZM82.9595 88.24C81.2662 88.24 79.9995 87.8267 79.1595 87C78.3329 86.1733 77.9195 85 77.9195 83.48V79.42C77.9195 77.8867 78.3329 76.7133 79.1595 75.9C79.9995 75.0733 81.2662 74.66 82.9595 74.66C84.6529 74.66 85.9195 75.0733 86.7595 75.9C87.5995 76.7133 88.0195 77.8867 88.0195 79.42V83.48C88.0195 85 87.5995 86.1733 86.7595 87C85.9195 87.8267 84.6529 88.24 82.9595 88.24ZM82.9595 86.56C83.9995 86.56 84.7862 86.2933 85.3195 85.76C85.8529 85.2267 86.1195 84.4467 86.1195 83.42V79.48C86.1195 78.44 85.8529 77.66 85.3195 77.14C84.7862 76.6067 83.9995 76.34 82.9595 76.34C81.9462 76.34 81.1662 76.6067 80.6195 77.14C80.0862 77.66 79.8195 78.44 79.8195 79.48V83.42C79.8195 84.4467 80.0862 85.2267 80.6195 85.76C81.1662 86.2933 81.9462 86.56 82.9595 86.56Z" fill="black"/>
<defs>
<linearGradient id="paint0_linear_54_9" x1="0" y1="0" x2="131.938" y2="127.939" gradientUnits="userSpaceOnUse">
<stop stop-color="#3E303A" stop-opacity="0.68"/>
<stop offset="1" stop-color="#243930" stop-opacity="0.7"/>
</linearGradient>
</defs>
</svg>
