<svg width="21" height="21" viewBox="0 0 21 21" fill="none" xmlns="http://www.w3.org/2000/svg">
<path d="M10.5 0C4.6996 0 0 4.6996 0 10.5C0 16.3004 4.6996 21 10.5 21C16.3004 21 21 16.3004 21 10.5C21 4.6996 16.3004 0 10.5 0ZM16.5968 11.6855C16.5968 11.9649 16.3681 12.1935 16.0887 12.1935H12.1935V16.0887C12.1935 16.3681 11.9649 16.5968 11.6855 16.5968H9.31452C9.03508 16.5968 8.80645 16.3681 8.80645 16.0887V12.1935H4.91129C4.63185 12.1935 4.40323 11.9649 4.40323 11.6855V9.31452C4.40323 9.03508 4.63185 8.80645 4.91129 8.80645H8.80645V4.91129C8.80645 4.63185 9.03508 4.40323 9.31452 4.40323H11.6855C11.9649 4.40323 12.1935 4.63185 12.1935 4.91129V8.80645H16.0887C16.3681 8.80645 16.5968 9.03508 16.5968 9.31452V11.6855Z" fill="#4980D3"/>
</svg>
